<?xml version="1.0" encoding="utf-8"?>
<!-- Generated by IcoMoon.io -->
<!DOCTYPE svg PUBLIC "-//W3C//DTD SVG 1.1//EN" "http://www.w3.org/Graphics/SVG/1.1/DTD/svg11.dtd">
<svg version="1.1" xmlns="http://www.w3.org/2000/svg" xmlns:xlink="http://www.w3.org/1999/xlink" width="1200" height="1024" viewBox="0 0 1200 1024">
<g id="icomoon-ignore">
</g>
<path fill="#000" d="M959.936 902.304c-134.784 0-244.064-109.248-244.064-244.064 0-98.88 58.944-183.84 143.488-222.176l-32.448-73.056 5.28 12.768-222.208 298.272v59.808h32.544v32.576h-97.664v-32.576h32.576v-32.576l-92.064-8.64c-16.768 118.432-118.272 209.632-241.344 209.632-134.784 0.032-244.032-109.216-244.032-244.032 0-134.784 109.248-244.032 244.064-244.032 35.232 0 68.64 7.616 98.88 21.024l60.992-153.216-27.68-77.312c-12.16 0-23.488 0-32.544 0-30.528 0-22.368-32.544-22.368-32.544s2.016-28.48 24.416-28.48 22.368 20.352 58.976 20.352c35.040 0 85.408 10.144 85.408 10.144s22.368 30.496-20.32 30.496c-19.328 0-40.608 0-61.024 0l23.136 83.104h353.664l-27.776-63.136h-21.6v-32.512h130.144v32.544h-73.536l95.264 200.32c22.72-7.008 46.88-10.784 71.872-10.784 134.784 0 244.064 109.248 244.064 244.032-0.032 134.816-109.312 244.064-244.096 244.064zM244.064 446.72c-116.832 0-211.52 94.688-211.52 211.52s94.688 211.488 211.52 211.488c106.208 0 193.92-78.368 208.96-180.448l-169.408-17.44c-2.688 15.264-15.392 27.072-31.424 27.072-17.984 0-32.544-14.56-32.544-32.576 0-17.952 14.56-32.576 32.544-32.576 3.84 0 7.424 0.992 10.848 2.24l67.872-170.56c-26.528-11.904-55.872-18.72-86.848-18.72zM292.864 644l162.528 17.184c0.032-0.992 0.16-1.952 0.16-2.944 0-75.2-39.328-141.056-98.464-178.592l-64.224 164.352zM418.464 322.624l-49.376 126.336c71.2 42.624 119.008 120.288 119.008 209.312 0 2.112-0.256 4.256-0.32 6.368l55.232 5.824-124.544-347.84zM799.296 300.672v19.648h-355.84l129.6 346.848 245.984-322.080-19.744-44.416zM959.936 446.72c-20.384 0-40.032 3.040-58.688 8.448l75.968 173.568c15.424 2.496 27.456 15.36 27.456 31.488 0 17.984-14.56 32.576-32.544 32.576s-32.576-14.56-32.576-32.576c0-8.736 3.552-16.672 9.248-22.56l-76.288-171.904c-73.184 33.28-124.128 106.816-124.128 192.448 0 116.8 94.688 211.488 211.488 211.488s211.488-94.688 211.488-211.488-94.624-211.488-211.424-211.488z"></path>
</svg>
